PathFileType	4	(X/Y/Z)	TVC_9_BWA3_walk_RCNL2025.trc
DataRate	CameraRate	NumFrames	NumMarkers	Units	OrigDataRate	OrigDataStartFrame	OrigNumFrames
100	100	9	27	mm	100	110	438
Frame#	Time	R_Shoulder			L_Shoulder			C7			J_Notch			R_Elbow			L_Elbow			R_Wrist			L_Wrist			R_Asis			L_Asis			R_Psis			L_Psis			Sacral			Thoracic			Sternum			R_Thigh_Lateral			R_Knee_Lateral			R_Shank_Lateral			R_Ankle_Lateral			R_Heel			R_Toe			L_Thigh_Lateral			L_Knee_Lateral			L_Shank_Lateral			L_Ankle_Lateral			L_Heel			L_Toe		
		X1	Y1	Z1	X2	Y2	Z2	X3	Y3	Z3	X4	Y4	Z4	X5	Y5	Z5	X6	Y6	Z6	X7	Y7	Z7	X8	Y8	Z8	X9	Y9	Z9	X10	Y10	Z10	X11	Y11	Z11	X12	Y12	Z12	X13	Y13	Z13	X14	Y14	Z14	X15	Y15	Z15	X16	Y16	Z16	X17	Y17	Z17	X18	Y18	Z18	X19	Y19	Z19	X20	Y20	Z20	X21	Y21	Z21	X22	Y22	Z22	X23	Y23	Z23	X24	Y24	Z24	X25	Y25	Z25	X26	Y26	Z26	X27	Y27	Z27
110	1.09000000	-791.398621	1376.701660	24.610924	-806.034973	1374.384277	-370.124969	-849.019409	1443.013672	-180.407227	-697.135315	1337.303955	-168.606903	-933.066589	1067.942261	95.599503	-754.555542	1051.417603	-478.407898	-938.182465	817.582764	68.724146	-603.726959	857.561035	-477.364883	-767.054749	926.757324	-19.164814	-787.386169	934.195496	-322.557922	-967.159607	957.557495	-103.942284	-973.570007	962.545044	-204.220169	-970.364807	960.051270	-154.081226	-955.324890	1171.095947	-166.137314	-648.079529	1147.712402	-167.903564	-654.410645	562.225464	37.273422	-643.177917	490.906799	-29.978109	-683.774597	346.321259	26.273588	-777.538208	134.330353	-33.084126	-834.131836	126.370407	-94.248032	-655.101440	89.351471	-66.803520	-806.014771	566.924805	-338.601807	-838.341064	439.961182	-273.842834	-866.419495	293.888763	-311.541595	-919.994446	78.254173	-228.450714	-970.863892	55.907944	-165.597977	-782.085632	47.380039	-212.589661
111	1.10000000	-783.891052	1376.674438	25.151272	-797.578125	1374.428101	-369.580780	-841.036194	1442.611572	-179.913696	-689.180908	1337.002075	-167.868362	-929.333679	1069.562134	95.115479	-741.850952	1053.076294	-479.959381	-936.869049	819.469025	67.057165	-586.662079	862.712158	-479.279984	-758.376770	926.458557	-19.641367	-779.169556	934.042175	-322.594910	-958.813721	957.051147	-103.867035	-965.389038	962.322693	-204.243317	-962.101379	959.686920	-154.055176	-947.171875	1170.596558	-166.059296	-639.809814	1147.648438	-167.312576	-644.174744	562.861206	37.541550	-632.227844	490.943390	-29.556692	-666.495972	344.474518	26.388918	-749.444702	128.105240	-33.847775	-805.685852	117.947922	-95.036591	-625.238403	88.224815	-67.706543	-802.249329	566.481506	-338.635681	-836.206482	439.809113	-273.815155	-865.056213	293.843689	-311.612000	-919.842041	78.375877	-228.420898	-970.801880	56.166821	-165.623917	-782.086975	47.304104	-212.676590
112	1.11000000	-776.276245	1376.539062	25.696379	-789.136780	1374.360474	-369.020935	-833.035339	1442.109497	-179.394592	-681.205078	1336.605347	-167.140488	-925.233887	1071.031860	94.734596	-729.314331	1054.668945	-481.446777	-934.983673	821.207916	65.597137	-569.946350	867.805573	-481.100586	-749.656433	926.030701	-20.060209	-770.946350	933.799011	-322.611389	-950.412292	956.415771	-103.746941	-957.166565	961.961365	-204.207596	-953.789429	959.188568	-153.977268	-938.977417	1169.989868	-165.918457	-631.517090	1147.471313	-166.757706	-634.557861	563.001831	38.085526	-621.849854	490.582092	-28.943359	-649.468018	342.490662	26.601753	-721.502319	122.320801	-34.655212	-777.375549	110.162346	-95.827934	-595.856201	87.168396	-68.901604	-798.339294	565.971558	-338.625580	-833.954163	439.645050	-273.785431	-863.617676	293.822815	-311.709473	-919.669067	78.545341	-228.417984	-970.724365	56.484325	-165.671585	-782.067993	47.203766	-212.746353
113	1.12000000	-768.540710	1376.291382	26.250826	-780.709656	1374.185303	-368.442993	-825.007751	1441.513306	-178.844910	-673.195862	1336.117798	-166.424118	-920.743408	1072.323486	94.449417	-716.953186	1056.185791	-482.863007	-932.527710	822.762024	64.355476	-553.598358	872.810211	-482.821289	-740.894592	925.473328	-20.410315	-762.716919	933.467468	-322.607208	-941.951538	955.656982	-103.576118	-948.904053	961.462708	-204.099152	-945.427795	958.559845	-153.837635	-930.735657	1169.283569	-165.708527	-623.198242	1147.178833	-166.248230	-625.607605	562.596069	38.894665	-612.015686	489.839600	-28.176956	-632.661072	340.412659	26.883060	-693.837036	117.022667	-35.487167	-749.356812	103.052902	-96.591911	-567.045837	86.222633	-70.371750	-794.268799	565.404114	-338.575500	-831.563171	439.471252	-273.760284	-862.094788	293.836639	-311.847473	-919.477295	78.774269	-228.459198	-970.641357	56.875504	-165.765640	-782.034302	47.075417	-212.805527
114	1.13000000	-760.673279	1375.929688	26.819983	-772.294678	1373.909058	-367.843964	-816.944519	1440.830322	-178.259399	-665.141357	1335.545044	-165.718781	-915.840210	1073.412354	94.254143	-704.776184	1057.619263	-484.201324	-929.501160	824.098785	63.340872	-537.635956	877.696350	-484.436478	-732.089417	924.789429	-20.681913	-754.478455	933.050232	-322.581207	-933.426697	954.782837	-103.348953	-940.602417	960.831848	-203.904877	-937.014557	957.807343	-153.626915	-922.440796	1168.486938	-165.423782	-614.849731	1146.771729	-165.791565	-617.383728	561.589417	39.932850	-602.691223	488.740692	-27.303774	-616.071106	338.287170	27.196989	-666.595764	112.241875	-36.330608	-721.795105	96.635101	-97.310768	-538.914551	85.451477	-72.075226	-790.037415	564.795349	-338.496185	-829.010132	439.290161	-273.748566	-860.475098	293.894409	-312.039703	-919.265625	79.074463	-228.562164	-970.560181	57.357895	-165.933350	-781.992615	46.917068	-212.864365
115	1.14000000	-752.665466	1375.454590	27.409891	-763.888550	1373.540283	-367.220215	-808.837158	1440.069824	-177.632706	-657.030090	1334.895508	-165.022629	-910.504333	1074.277100	94.144882	-692.792725	1058.963623	-485.455627	-925.902222	825.190918	62.559276	-522.076736	882.436005	-485.940353	-723.236877	923.985535	-20.866859	-746.224976	932.551453	-322.531677	-924.832031	953.803955	-103.060432	-932.261353	960.077515	-203.612671	-928.546692	956.940735	-153.336552	-914.086914	1167.610352	-165.059341	-606.466980	1146.254028	-165.392395	-609.949158	559.934021	41.134640	-593.837585	487.317596	-26.374685	-599.729065	336.161896	27.505127	-639.945190	107.993118	-37.179260	-694.862244	90.900360	-97.981613	-511.585632	84.936462	-73.946564	-785.652283	564.167419	-338.403168	-826.269409	439.104279	-273.759918	-858.740967	294.002930	-312.297760	-919.029907	79.457390	-228.743683	-970.484924	57.950607	-166.201859	-781.948730	46.728764	-212.934692
116	1.15000000	-744.511230	1374.869141	28.027138	-755.486572	1373.089844	-366.567444	-800.677734	1439.242676	-176.959396	-648.851379	1334.179565	-164.332352	-904.717834	1074.900513	94.119743	-681.013489	1060.215210	-486.620300	-921.726776	826.016632	62.014095	-506.937531	887.003082	-487.327026	-714.331055	923.071533	-20.958908	-737.947571	931.976990	-322.456299	-916.161011	952.733337	-102.706482	-923.878540	959.211487	-203.211716	-920.019775	955.972412	-152.959099	-905.668091	1166.665771	-164.611282	-598.044434	1145.633301	-165.051987	-603.355225	557.604370	42.407394	-585.411865	485.609161	-25.441544	-583.706726	334.080536	27.771193	-614.067444	104.273285	-38.033443	-668.732422	85.817635	-98.616776	-485.196106	84.763382	-75.901840	-781.118652	563.546082	-338.313934	-823.313232	438.916046	-273.803162	-856.869446	294.166534	-312.629578	-918.763123	79.933647	-229.018158	-970.415222	58.672993	-166.595078	-781.905518	46.512966	-213.027740
117	1.16000000	-736.207214	1374.179077	28.678705	-747.082886	1372.570923	-365.880890	-792.458557	1438.361206	-176.234039	-640.595398	1333.409424	-163.643173	-898.465454	1075.269653	94.178871	-669.449768	1061.372437	-487.690369	-916.968475	826.559814	61.706501	-492.234695	891.373627	-488.590591	-705.364807	922.060547	-20.953882	-729.634766	931.334534	-322.352448	-907.406494	951.586548	-102.284195	-915.449097	958.248230	-202.692932	-911.427795	954.917389	-152.488564	-897.178589	1165.665771	-164.076828	-589.575623	1144.920532	-164.767639	-597.622803	554.614685	43.641239	-577.368530	483.659088	-24.553205	-568.116089	332.076416	27.965328	-589.154541	101.060616	-38.899513	-643.579407	81.337135	-99.242340	-459.892700	85.003082	-77.847763	-776.429993	562.956238	-338.244690	-820.113220	438.727966	-273.885162	-854.832947	294.386658	-313.037811	-918.455994	80.512321	-229.396179	-970.347046	59.543159	-167.130661	-781.861572	46.274925	-213.151993
118	1.17000000	-727.752197	1373.392822	29.371796	-738.670288	1371.998657	-365.155243	-784.172729	1437.439209	-175.451355	-632.253723	1332.599121	-162.949020	-891.734741	1075.376831	94.324364	-658.113770	1062.435669	-488.661469	-911.618317	826.810333	61.635774	-477.984161	895.526154	-489.725189	-696.330139	920.968628	-20.849733	-721.272644	930.633789	-322.217194	-898.561157	950.381042	-101.792107	-906.965027	957.204285	-202.049484	-902.763092	953.792664	-151.920795	-888.613098	1164.624268	-163.454376	-581.052917	1144.130371	-164.532440	-592.720276	551.033203	44.726555	-569.660583	481.514099	-23.751638	-553.102112	330.165833	28.067183	-565.400452	98.314842	-39.788864	-619.573242	77.395905	-99.894928	-435.826843	85.690765	-79.693283	-771.562561	562.417969	-338.207397	-816.642639	438.542999	-274.009918	-852.601990	294.662201	-313.518707	-918.097839	81.200478	-229.883057	-970.272644	60.576675	-167.817413	-781.811279	46.022900	-213.311447
